M48
; DRILL file {KiCad 7.0.7-7.0.7~ubuntu23.04.1} date Tue 22 Aug 2023 09:30:14 PM EDT
; FORMAT={-:-/ absolute / inch / decimal}
; #@! TF.CreationDate,2023-08-22T21:30:14-04:00
; #@! TF.GenerationSoftware,Kicad,Pcbnew,7.0.7-7.0.7~ubuntu23.04.1
; #@! TF.FileFunction,NonPlated,1,4,NPTH
FMAT,2
INCH
; #@! TA.AperFunction,NonPlated,NPTH,ComponentDrill
T1C0.0256
; #@! TA.AperFunction,NonPlated,NPTH,ComponentDrill
T2C0.0390
; #@! TA.AperFunction,NonPlated,NPTH,ComponentDrill
T3C0.0689
; #@! TA.AperFunction,NonPlated,NPTH,ComponentDrill
T4C0.1570
%
G90
G05
T1
X6.5425Y-2.1649
X6.77Y-2.1649
T2
X5.3506Y-4.6937
X5.3906Y-4.4937
X5.4306Y-4.6937
T3
X3.0812Y-2.3438
X3.0812Y-3.0938
X3.0812Y-3.8438
X3.4812Y-2.3438
X3.4812Y-3.0938
X3.4812Y-3.8438
X3.8312Y-2.3438
X3.8312Y-3.0938
X3.8312Y-3.8438
X4.2313Y-2.3438
X4.2313Y-3.0938
X4.2313Y-3.8438
X4.5812Y-2.3438
X4.5812Y-3.0938
X4.5812Y-3.8438
X4.9813Y-2.3438
X4.9813Y-3.0938
X4.9813Y-3.8438
X5.3312Y-2.3438
X5.3312Y-3.0938
X5.3312Y-3.8438
X5.7313Y-2.3438
X5.7313Y-3.0938
X5.7313Y-3.8438
X6.0812Y-2.343
X6.0812Y-3.0938
X6.0812Y-3.8438
X6.4562Y-4.5938
X6.4813Y-2.343
X6.4813Y-3.0938
X6.4813Y-3.8438
X6.8312Y-3.0938
X6.8312Y-3.8438
X6.832Y-2.3438
X6.8563Y-4.5938
X7.2313Y-3.0938
X7.2313Y-3.8438
X7.232Y-2.3438
X7.5812Y-2.3438
X7.5812Y-3.0938
X7.5812Y-3.8438
X7.9813Y-2.3438
X7.9813Y-3.0938
X7.9813Y-3.8438
X8.3312Y-2.3438
X8.3312Y-3.0938
X8.3312Y-3.8438
X8.7312Y-2.3438
X8.7312Y-3.0938
X8.7312Y-3.8438
X9.0812Y-2.3438
X9.0812Y-3.0938
X9.0812Y-3.8438
X9.4812Y-2.3438
X9.4812Y-3.0938
X9.4812Y-3.8438
X9.8312Y-2.3438
X9.8312Y-3.0938
X9.8312Y-3.8438
X10.2312Y-2.3438
X10.2312Y-3.0938
X10.2312Y-3.8438
T4
X3.2812Y-2.3438
X3.2812Y-3.0938
X3.2812Y-3.8438
X4.0312Y-2.3438
X4.0312Y-3.0938
X4.0312Y-3.8438
X4.0312Y-4.2687
X4.4062Y-4.2687
X4.7812Y-2.3438
X4.7812Y-3.0938
X4.7812Y-3.8438
X5.5312Y-2.3438
X5.5312Y-3.0938
X5.5312Y-3.8438
X6.2812Y-2.343
X6.2812Y-3.0938
X6.2812Y-3.8438
X6.6562Y-4.5938
X7.0312Y-3.0938
X7.0312Y-3.8438
X7.032Y-2.3438
X7.7812Y-2.3438
X7.7812Y-3.0938
X7.7812Y-3.8438
X8.5312Y-2.3438
X8.5312Y-3.0938
X8.5312Y-3.8438
X8.9062Y-4.2687
X9.2812Y-2.3438
X9.2812Y-3.0938
X9.2812Y-3.8438
X9.2812Y-4.2687
X10.0312Y-2.3438
X10.0312Y-3.0938
X10.0312Y-3.8438
T0
M30
