%TF.GenerationSoftware,KiCad,Pcbnew,7.0.7-7.0.7~ubuntu23.04.1*%
%TF.CreationDate,2023-08-22T21:30:14-04:00*%
%TF.ProjectId,KeyboardSpeedrun,4b657962-6f61-4726-9453-706565647275,rev?*%
%TF.SameCoordinates,Original*%
%TF.FileFunction,Soldermask,Top*%
%TF.FilePolarity,Negative*%
%FSLAX46Y46*%
G04 Gerber Fmt 4.6, Leading zero omitted, Abs format (unit mm)*
G04 Created by KiCad (PCBNEW 7.0.7-7.0.7~ubuntu23.04.1) date 2023-08-22 21:30:14*
%MOMM*%
%LPD*%
G01*
G04 APERTURE LIST*
%ADD10C,1.750000*%
%ADD11C,3.987800*%
%ADD12C,0.650000*%
%ADD13O,1.000000X1.600000*%
%ADD14O,1.000000X2.100000*%
%ADD15C,0.990600*%
G04 APERTURE END LIST*
D10*
%TO.C,MX1*%
X78263750Y-59531250D03*
D11*
X83343750Y-59531250D03*
D10*
X88423750Y-59531250D03*
%TD*%
%TO.C,MX28*%
X211613750Y-97631250D03*
D11*
X216693750Y-97631250D03*
D10*
X221773750Y-97631250D03*
%TD*%
%TO.C,MX13*%
X116363750Y-78581250D03*
D11*
X121443750Y-78581250D03*
D10*
X126523750Y-78581250D03*
%TD*%
%TO.C,MX24*%
X135413750Y-97631250D03*
D11*
X140493750Y-97631250D03*
D10*
X145573750Y-97631250D03*
%TD*%
%TO.C,MX9*%
X230663750Y-59531250D03*
D11*
X235743750Y-59531250D03*
D10*
X240823750Y-59531250D03*
%TD*%
%TO.C,MX22*%
X97313750Y-97631250D03*
D11*
X102393750Y-97631250D03*
D10*
X107473750Y-97631250D03*
%TD*%
%TO.C,MX11*%
X78263750Y-78581250D03*
D11*
X83343750Y-78581250D03*
D10*
X88423750Y-78581250D03*
%TD*%
%TO.C,MX12*%
X97313750Y-78581250D03*
D11*
X102393750Y-78581250D03*
D10*
X107473750Y-78581250D03*
%TD*%
%TO.C,MX8*%
X211613750Y-59531250D03*
D11*
X216693750Y-59531250D03*
D10*
X221773750Y-59531250D03*
%TD*%
%TO.C,MX31*%
X163988750Y-116681250D03*
D11*
X169068750Y-116681250D03*
D10*
X174148750Y-116681250D03*
%TD*%
%TO.C,MX19*%
X230663750Y-78581250D03*
D11*
X235743750Y-78581250D03*
D10*
X240823750Y-78581250D03*
%TD*%
%TO.C,MX5*%
X164623750Y-59511250D03*
D11*
X159543750Y-59511250D03*
D10*
X154463750Y-59511250D03*
%TD*%
%TO.C,MX10*%
X249713750Y-59531250D03*
D11*
X254793750Y-59531250D03*
D10*
X259873750Y-59531250D03*
%TD*%
%TO.C,MX18*%
X211613750Y-78581250D03*
D11*
X216693750Y-78581250D03*
D10*
X221773750Y-78581250D03*
%TD*%
%TO.C,MX30*%
X249713750Y-97631250D03*
D11*
X254793750Y-97631250D03*
D10*
X259873750Y-97631250D03*
%TD*%
%TO.C,MX23*%
X116363750Y-97631250D03*
D11*
X121443750Y-97631250D03*
D10*
X126523750Y-97631250D03*
%TD*%
%TO.C,MX14*%
X135413750Y-78581250D03*
D11*
X140493750Y-78581250D03*
D10*
X145573750Y-78581250D03*
%TD*%
%TO.C,MX16*%
X173513750Y-78581250D03*
D11*
X178593750Y-78581250D03*
D10*
X183673750Y-78581250D03*
%TD*%
D11*
%TO.C,STAB31*%
X235743750Y-108426250D03*
X226218750Y-108426250D03*
X111918750Y-108426250D03*
X102393750Y-108426250D03*
%TD*%
D10*
%TO.C,MX25*%
X154463750Y-97631250D03*
D11*
X159543750Y-97631250D03*
D10*
X164623750Y-97631250D03*
%TD*%
%TO.C,MX29*%
X230663750Y-97631250D03*
D11*
X235743750Y-97631250D03*
D10*
X240823750Y-97631250D03*
%TD*%
%TO.C,MX2*%
X97313750Y-59531250D03*
D11*
X102393750Y-59531250D03*
D10*
X107473750Y-59531250D03*
%TD*%
%TO.C,MX7*%
X192563750Y-59531250D03*
D11*
X197643750Y-59531250D03*
D10*
X202723750Y-59531250D03*
%TD*%
%TO.C,MX20*%
X249713750Y-78581250D03*
D11*
X254793750Y-78581250D03*
D10*
X259873750Y-78581250D03*
%TD*%
%TO.C,MX17*%
X192563750Y-78581250D03*
D11*
X197643750Y-78581250D03*
D10*
X202723750Y-78581250D03*
%TD*%
%TO.C,MX15*%
X154463750Y-78581250D03*
D11*
X159543750Y-78581250D03*
D10*
X164623750Y-78581250D03*
%TD*%
%TO.C,MX21*%
X78263750Y-97631250D03*
D11*
X83343750Y-97631250D03*
D10*
X88423750Y-97631250D03*
%TD*%
%TO.C,MX6*%
X183693750Y-59531250D03*
D11*
X178613750Y-59531250D03*
D10*
X173533750Y-59531250D03*
%TD*%
%TO.C,MX27*%
X192563750Y-97631250D03*
D11*
X197643750Y-97631250D03*
D10*
X202723750Y-97631250D03*
%TD*%
%TO.C,MX4*%
X135413750Y-59531250D03*
D11*
X140493750Y-59531250D03*
D10*
X145573750Y-59531250D03*
%TD*%
%TO.C,MX26*%
X173513750Y-97631250D03*
D11*
X178593750Y-97631250D03*
D10*
X183673750Y-97631250D03*
%TD*%
%TO.C,MX3*%
X116363750Y-59531250D03*
D11*
X121443750Y-59531250D03*
D10*
X126523750Y-59531250D03*
%TD*%
D12*
%TO.C,J1*%
X166178750Y-54987500D03*
X171958750Y-54987500D03*
D13*
X164748750Y-51337500D03*
D14*
X164748750Y-55517500D03*
D13*
X173388750Y-51337500D03*
D14*
X173388750Y-55517500D03*
%TD*%
D15*
%TO.C,J2*%
X136921875Y-114141250D03*
X137937875Y-119221250D03*
X135905875Y-119221250D03*
%TD*%
M02*
