%TF.GenerationSoftware,KiCad,Pcbnew,7.0.7-7.0.7~ubuntu23.04.1*%
%TF.CreationDate,2023-08-22T21:30:14-04:00*%
%TF.ProjectId,KeyboardSpeedrun,4b657962-6f61-4726-9453-706565647275,rev?*%
%TF.SameCoordinates,Original*%
%TF.FileFunction,Other,Comment*%
%FSLAX46Y46*%
G04 Gerber Fmt 4.6, Leading zero omitted, Abs format (unit mm)*
G04 Created by KiCad (PCBNEW 7.0.7-7.0.7~ubuntu23.04.1) date 2023-08-22 21:30:14*
%MOMM*%
%LPD*%
G01*
G04 APERTURE LIST*
%ADD10C,0.030000*%
%ADD11C,0.070000*%
G04 APERTURE END LIST*
D10*
X131063840Y-116572213D02*
X131063840Y-116372213D01*
X131178125Y-116572213D02*
X131092411Y-116457928D01*
X131178125Y-116372213D02*
X131063840Y-116486499D01*
X131263840Y-116467451D02*
X131330506Y-116467451D01*
X131359078Y-116572213D02*
X131263840Y-116572213D01*
X131263840Y-116572213D02*
X131263840Y-116372213D01*
X131263840Y-116372213D02*
X131359078Y-116372213D01*
X131444792Y-116467451D02*
X131511458Y-116467451D01*
X131540030Y-116572213D02*
X131444792Y-116572213D01*
X131444792Y-116572213D02*
X131444792Y-116372213D01*
X131444792Y-116372213D02*
X131540030Y-116372213D01*
X131625744Y-116572213D02*
X131625744Y-116372213D01*
X131625744Y-116372213D02*
X131701934Y-116372213D01*
X131701934Y-116372213D02*
X131720982Y-116381737D01*
X131720982Y-116381737D02*
X131730505Y-116391261D01*
X131730505Y-116391261D02*
X131740029Y-116410309D01*
X131740029Y-116410309D02*
X131740029Y-116438880D01*
X131740029Y-116438880D02*
X131730505Y-116457928D01*
X131730505Y-116457928D02*
X131720982Y-116467451D01*
X131720982Y-116467451D02*
X131701934Y-116476975D01*
X131701934Y-116476975D02*
X131625744Y-116476975D01*
X131825744Y-116496023D02*
X131978125Y-116496023D01*
X132111458Y-116372213D02*
X132149553Y-116372213D01*
X132149553Y-116372213D02*
X132168601Y-116381737D01*
X132168601Y-116381737D02*
X132187648Y-116400785D01*
X132187648Y-116400785D02*
X132197172Y-116438880D01*
X132197172Y-116438880D02*
X132197172Y-116505547D01*
X132197172Y-116505547D02*
X132187648Y-116543642D01*
X132187648Y-116543642D02*
X132168601Y-116562690D01*
X132168601Y-116562690D02*
X132149553Y-116572213D01*
X132149553Y-116572213D02*
X132111458Y-116572213D01*
X132111458Y-116572213D02*
X132092410Y-116562690D01*
X132092410Y-116562690D02*
X132073363Y-116543642D01*
X132073363Y-116543642D02*
X132063839Y-116505547D01*
X132063839Y-116505547D02*
X132063839Y-116438880D01*
X132063839Y-116438880D02*
X132073363Y-116400785D01*
X132073363Y-116400785D02*
X132092410Y-116381737D01*
X132092410Y-116381737D02*
X132111458Y-116372213D01*
X132282887Y-116372213D02*
X132282887Y-116534118D01*
X132282887Y-116534118D02*
X132292410Y-116553166D01*
X132292410Y-116553166D02*
X132301934Y-116562690D01*
X132301934Y-116562690D02*
X132320982Y-116572213D01*
X132320982Y-116572213D02*
X132359077Y-116572213D01*
X132359077Y-116572213D02*
X132378125Y-116562690D01*
X132378125Y-116562690D02*
X132387648Y-116553166D01*
X132387648Y-116553166D02*
X132397172Y-116534118D01*
X132397172Y-116534118D02*
X132397172Y-116372213D01*
X132463839Y-116372213D02*
X132578125Y-116372213D01*
X132520982Y-116572213D02*
X132520982Y-116372213D01*
X132778125Y-116372213D02*
X132911458Y-116372213D01*
X132911458Y-116372213D02*
X132778125Y-116572213D01*
X132778125Y-116572213D02*
X132911458Y-116572213D01*
X133025744Y-116372213D02*
X133063839Y-116372213D01*
X133063839Y-116372213D02*
X133082887Y-116381737D01*
X133082887Y-116381737D02*
X133101934Y-116400785D01*
X133101934Y-116400785D02*
X133111458Y-116438880D01*
X133111458Y-116438880D02*
X133111458Y-116505547D01*
X133111458Y-116505547D02*
X133101934Y-116543642D01*
X133101934Y-116543642D02*
X133082887Y-116562690D01*
X133082887Y-116562690D02*
X133063839Y-116572213D01*
X133063839Y-116572213D02*
X133025744Y-116572213D01*
X133025744Y-116572213D02*
X133006696Y-116562690D01*
X133006696Y-116562690D02*
X132987649Y-116543642D01*
X132987649Y-116543642D02*
X132978125Y-116505547D01*
X132978125Y-116505547D02*
X132978125Y-116438880D01*
X132978125Y-116438880D02*
X132987649Y-116400785D01*
X132987649Y-116400785D02*
X133006696Y-116381737D01*
X133006696Y-116381737D02*
X133025744Y-116372213D01*
X133197173Y-116572213D02*
X133197173Y-116372213D01*
X133197173Y-116372213D02*
X133311458Y-116572213D01*
X133311458Y-116572213D02*
X133311458Y-116372213D01*
X133406697Y-116467451D02*
X133473363Y-116467451D01*
X133501935Y-116572213D02*
X133406697Y-116572213D01*
X133406697Y-116572213D02*
X133406697Y-116372213D01*
X133406697Y-116372213D02*
X133501935Y-116372213D01*
X126063840Y-116572213D02*
X126063840Y-116372213D01*
X126178125Y-116572213D02*
X126092411Y-116457928D01*
X126178125Y-116372213D02*
X126063840Y-116486499D01*
X126263840Y-116467451D02*
X126330506Y-116467451D01*
X126359078Y-116572213D02*
X126263840Y-116572213D01*
X126263840Y-116572213D02*
X126263840Y-116372213D01*
X126263840Y-116372213D02*
X126359078Y-116372213D01*
X126444792Y-116467451D02*
X126511458Y-116467451D01*
X126540030Y-116572213D02*
X126444792Y-116572213D01*
X126444792Y-116572213D02*
X126444792Y-116372213D01*
X126444792Y-116372213D02*
X126540030Y-116372213D01*
X126625744Y-116572213D02*
X126625744Y-116372213D01*
X126625744Y-116372213D02*
X126701934Y-116372213D01*
X126701934Y-116372213D02*
X126720982Y-116381737D01*
X126720982Y-116381737D02*
X126730505Y-116391261D01*
X126730505Y-116391261D02*
X126740029Y-116410309D01*
X126740029Y-116410309D02*
X126740029Y-116438880D01*
X126740029Y-116438880D02*
X126730505Y-116457928D01*
X126730505Y-116457928D02*
X126720982Y-116467451D01*
X126720982Y-116467451D02*
X126701934Y-116476975D01*
X126701934Y-116476975D02*
X126625744Y-116476975D01*
X126825744Y-116496023D02*
X126978125Y-116496023D01*
X127111458Y-116372213D02*
X127149553Y-116372213D01*
X127149553Y-116372213D02*
X127168601Y-116381737D01*
X127168601Y-116381737D02*
X127187648Y-116400785D01*
X127187648Y-116400785D02*
X127197172Y-116438880D01*
X127197172Y-116438880D02*
X127197172Y-116505547D01*
X127197172Y-116505547D02*
X127187648Y-116543642D01*
X127187648Y-116543642D02*
X127168601Y-116562690D01*
X127168601Y-116562690D02*
X127149553Y-116572213D01*
X127149553Y-116572213D02*
X127111458Y-116572213D01*
X127111458Y-116572213D02*
X127092410Y-116562690D01*
X127092410Y-116562690D02*
X127073363Y-116543642D01*
X127073363Y-116543642D02*
X127063839Y-116505547D01*
X127063839Y-116505547D02*
X127063839Y-116438880D01*
X127063839Y-116438880D02*
X127073363Y-116400785D01*
X127073363Y-116400785D02*
X127092410Y-116381737D01*
X127092410Y-116381737D02*
X127111458Y-116372213D01*
X127282887Y-116372213D02*
X127282887Y-116534118D01*
X127282887Y-116534118D02*
X127292410Y-116553166D01*
X127292410Y-116553166D02*
X127301934Y-116562690D01*
X127301934Y-116562690D02*
X127320982Y-116572213D01*
X127320982Y-116572213D02*
X127359077Y-116572213D01*
X127359077Y-116572213D02*
X127378125Y-116562690D01*
X127378125Y-116562690D02*
X127387648Y-116553166D01*
X127387648Y-116553166D02*
X127397172Y-116534118D01*
X127397172Y-116534118D02*
X127397172Y-116372213D01*
X127463839Y-116372213D02*
X127578125Y-116372213D01*
X127520982Y-116572213D02*
X127520982Y-116372213D01*
X127778125Y-116372213D02*
X127911458Y-116372213D01*
X127911458Y-116372213D02*
X127778125Y-116572213D01*
X127778125Y-116572213D02*
X127911458Y-116572213D01*
X128025744Y-116372213D02*
X128063839Y-116372213D01*
X128063839Y-116372213D02*
X128082887Y-116381737D01*
X128082887Y-116381737D02*
X128101934Y-116400785D01*
X128101934Y-116400785D02*
X128111458Y-116438880D01*
X128111458Y-116438880D02*
X128111458Y-116505547D01*
X128111458Y-116505547D02*
X128101934Y-116543642D01*
X128101934Y-116543642D02*
X128082887Y-116562690D01*
X128082887Y-116562690D02*
X128063839Y-116572213D01*
X128063839Y-116572213D02*
X128025744Y-116572213D01*
X128025744Y-116572213D02*
X128006696Y-116562690D01*
X128006696Y-116562690D02*
X127987649Y-116543642D01*
X127987649Y-116543642D02*
X127978125Y-116505547D01*
X127978125Y-116505547D02*
X127978125Y-116438880D01*
X127978125Y-116438880D02*
X127987649Y-116400785D01*
X127987649Y-116400785D02*
X128006696Y-116381737D01*
X128006696Y-116381737D02*
X128025744Y-116372213D01*
X128197173Y-116572213D02*
X128197173Y-116372213D01*
X128197173Y-116372213D02*
X128311458Y-116572213D01*
X128311458Y-116572213D02*
X128311458Y-116372213D01*
X128406697Y-116467451D02*
X128473363Y-116467451D01*
X128501935Y-116572213D02*
X128406697Y-116572213D01*
X128406697Y-116572213D02*
X128406697Y-116372213D01*
X128406697Y-116372213D02*
X128501935Y-116372213D01*
X131197172Y-116972213D02*
X131197172Y-116772213D01*
X131197172Y-116772213D02*
X131311457Y-116972213D01*
X131311457Y-116972213D02*
X131311457Y-116772213D01*
X131435267Y-116972213D02*
X131416219Y-116962690D01*
X131416219Y-116962690D02*
X131406696Y-116953166D01*
X131406696Y-116953166D02*
X131397172Y-116934118D01*
X131397172Y-116934118D02*
X131397172Y-116876975D01*
X131397172Y-116876975D02*
X131406696Y-116857928D01*
X131406696Y-116857928D02*
X131416219Y-116848404D01*
X131416219Y-116848404D02*
X131435267Y-116838880D01*
X131435267Y-116838880D02*
X131463838Y-116838880D01*
X131463838Y-116838880D02*
X131482886Y-116848404D01*
X131482886Y-116848404D02*
X131492410Y-116857928D01*
X131492410Y-116857928D02*
X131501934Y-116876975D01*
X131501934Y-116876975D02*
X131501934Y-116934118D01*
X131501934Y-116934118D02*
X131492410Y-116953166D01*
X131492410Y-116953166D02*
X131482886Y-116962690D01*
X131482886Y-116962690D02*
X131463838Y-116972213D01*
X131463838Y-116972213D02*
X131435267Y-116972213D01*
X131806695Y-116867451D02*
X131740029Y-116867451D01*
X131740029Y-116972213D02*
X131740029Y-116772213D01*
X131740029Y-116772213D02*
X131835267Y-116772213D01*
X131911458Y-116953166D02*
X131920981Y-116962690D01*
X131920981Y-116962690D02*
X131911458Y-116972213D01*
X131911458Y-116972213D02*
X131901934Y-116962690D01*
X131901934Y-116962690D02*
X131911458Y-116953166D01*
X131911458Y-116953166D02*
X131911458Y-116972213D01*
X132120981Y-116953166D02*
X132111457Y-116962690D01*
X132111457Y-116962690D02*
X132082886Y-116972213D01*
X132082886Y-116972213D02*
X132063838Y-116972213D01*
X132063838Y-116972213D02*
X132035267Y-116962690D01*
X132035267Y-116962690D02*
X132016219Y-116943642D01*
X132016219Y-116943642D02*
X132006696Y-116924594D01*
X132006696Y-116924594D02*
X131997172Y-116886499D01*
X131997172Y-116886499D02*
X131997172Y-116857928D01*
X131997172Y-116857928D02*
X132006696Y-116819832D01*
X132006696Y-116819832D02*
X132016219Y-116800785D01*
X132016219Y-116800785D02*
X132035267Y-116781737D01*
X132035267Y-116781737D02*
X132063838Y-116772213D01*
X132063838Y-116772213D02*
X132082886Y-116772213D01*
X132082886Y-116772213D02*
X132111457Y-116781737D01*
X132111457Y-116781737D02*
X132120981Y-116791261D01*
X132292410Y-116838880D02*
X132292410Y-116972213D01*
X132206696Y-116838880D02*
X132206696Y-116943642D01*
X132206696Y-116943642D02*
X132216219Y-116962690D01*
X132216219Y-116962690D02*
X132235267Y-116972213D01*
X132235267Y-116972213D02*
X132263838Y-116972213D01*
X132263838Y-116972213D02*
X132282886Y-116962690D01*
X132282886Y-116962690D02*
X132292410Y-116953166D01*
X132511457Y-116838880D02*
X132587648Y-116838880D01*
X132540029Y-116772213D02*
X132540029Y-116943642D01*
X132540029Y-116943642D02*
X132549552Y-116962690D01*
X132549552Y-116962690D02*
X132568600Y-116972213D01*
X132568600Y-116972213D02*
X132587648Y-116972213D01*
X132654315Y-116972213D02*
X132654315Y-116838880D01*
X132654315Y-116876975D02*
X132663838Y-116857928D01*
X132663838Y-116857928D02*
X132673362Y-116848404D01*
X132673362Y-116848404D02*
X132692410Y-116838880D01*
X132692410Y-116838880D02*
X132711457Y-116838880D01*
X132863839Y-116972213D02*
X132863839Y-116867451D01*
X132863839Y-116867451D02*
X132854315Y-116848404D01*
X132854315Y-116848404D02*
X132835267Y-116838880D01*
X132835267Y-116838880D02*
X132797172Y-116838880D01*
X132797172Y-116838880D02*
X132778125Y-116848404D01*
X132863839Y-116962690D02*
X132844791Y-116972213D01*
X132844791Y-116972213D02*
X132797172Y-116972213D01*
X132797172Y-116972213D02*
X132778125Y-116962690D01*
X132778125Y-116962690D02*
X132768601Y-116943642D01*
X132768601Y-116943642D02*
X132768601Y-116924594D01*
X132768601Y-116924594D02*
X132778125Y-116905547D01*
X132778125Y-116905547D02*
X132797172Y-116896023D01*
X132797172Y-116896023D02*
X132844791Y-116896023D01*
X132844791Y-116896023D02*
X132863839Y-116886499D01*
X133044791Y-116962690D02*
X133025743Y-116972213D01*
X133025743Y-116972213D02*
X132987648Y-116972213D01*
X132987648Y-116972213D02*
X132968600Y-116962690D01*
X132968600Y-116962690D02*
X132959077Y-116953166D01*
X132959077Y-116953166D02*
X132949553Y-116934118D01*
X132949553Y-116934118D02*
X132949553Y-116876975D01*
X132949553Y-116876975D02*
X132959077Y-116857928D01*
X132959077Y-116857928D02*
X132968600Y-116848404D01*
X132968600Y-116848404D02*
X132987648Y-116838880D01*
X132987648Y-116838880D02*
X133025743Y-116838880D01*
X133025743Y-116838880D02*
X133044791Y-116848404D01*
X133130506Y-116972213D02*
X133130506Y-116772213D01*
X133149553Y-116896023D02*
X133206696Y-116972213D01*
X133206696Y-116838880D02*
X133130506Y-116915070D01*
X133282887Y-116962690D02*
X133301934Y-116972213D01*
X133301934Y-116972213D02*
X133340030Y-116972213D01*
X133340030Y-116972213D02*
X133359077Y-116962690D01*
X133359077Y-116962690D02*
X133368601Y-116943642D01*
X133368601Y-116943642D02*
X133368601Y-116934118D01*
X133368601Y-116934118D02*
X133359077Y-116915070D01*
X133359077Y-116915070D02*
X133340030Y-116905547D01*
X133340030Y-116905547D02*
X133311458Y-116905547D01*
X133311458Y-116905547D02*
X133292411Y-116896023D01*
X133292411Y-116896023D02*
X133282887Y-116876975D01*
X133282887Y-116876975D02*
X133282887Y-116867451D01*
X133282887Y-116867451D02*
X133292411Y-116848404D01*
X133292411Y-116848404D02*
X133311458Y-116838880D01*
X133311458Y-116838880D02*
X133340030Y-116838880D01*
X133340030Y-116838880D02*
X133359077Y-116848404D01*
X126197172Y-116972213D02*
X126197172Y-116772213D01*
X126197172Y-116772213D02*
X126311457Y-116972213D01*
X126311457Y-116972213D02*
X126311457Y-116772213D01*
X126435267Y-116972213D02*
X126416219Y-116962690D01*
X126416219Y-116962690D02*
X126406696Y-116953166D01*
X126406696Y-116953166D02*
X126397172Y-116934118D01*
X126397172Y-116934118D02*
X126397172Y-116876975D01*
X126397172Y-116876975D02*
X126406696Y-116857928D01*
X126406696Y-116857928D02*
X126416219Y-116848404D01*
X126416219Y-116848404D02*
X126435267Y-116838880D01*
X126435267Y-116838880D02*
X126463838Y-116838880D01*
X126463838Y-116838880D02*
X126482886Y-116848404D01*
X126482886Y-116848404D02*
X126492410Y-116857928D01*
X126492410Y-116857928D02*
X126501934Y-116876975D01*
X126501934Y-116876975D02*
X126501934Y-116934118D01*
X126501934Y-116934118D02*
X126492410Y-116953166D01*
X126492410Y-116953166D02*
X126482886Y-116962690D01*
X126482886Y-116962690D02*
X126463838Y-116972213D01*
X126463838Y-116972213D02*
X126435267Y-116972213D01*
X126806695Y-116867451D02*
X126740029Y-116867451D01*
X126740029Y-116972213D02*
X126740029Y-116772213D01*
X126740029Y-116772213D02*
X126835267Y-116772213D01*
X126911458Y-116953166D02*
X126920981Y-116962690D01*
X126920981Y-116962690D02*
X126911458Y-116972213D01*
X126911458Y-116972213D02*
X126901934Y-116962690D01*
X126901934Y-116962690D02*
X126911458Y-116953166D01*
X126911458Y-116953166D02*
X126911458Y-116972213D01*
X127120981Y-116953166D02*
X127111457Y-116962690D01*
X127111457Y-116962690D02*
X127082886Y-116972213D01*
X127082886Y-116972213D02*
X127063838Y-116972213D01*
X127063838Y-116972213D02*
X127035267Y-116962690D01*
X127035267Y-116962690D02*
X127016219Y-116943642D01*
X127016219Y-116943642D02*
X127006696Y-116924594D01*
X127006696Y-116924594D02*
X126997172Y-116886499D01*
X126997172Y-116886499D02*
X126997172Y-116857928D01*
X126997172Y-116857928D02*
X127006696Y-116819832D01*
X127006696Y-116819832D02*
X127016219Y-116800785D01*
X127016219Y-116800785D02*
X127035267Y-116781737D01*
X127035267Y-116781737D02*
X127063838Y-116772213D01*
X127063838Y-116772213D02*
X127082886Y-116772213D01*
X127082886Y-116772213D02*
X127111457Y-116781737D01*
X127111457Y-116781737D02*
X127120981Y-116791261D01*
X127292410Y-116838880D02*
X127292410Y-116972213D01*
X127206696Y-116838880D02*
X127206696Y-116943642D01*
X127206696Y-116943642D02*
X127216219Y-116962690D01*
X127216219Y-116962690D02*
X127235267Y-116972213D01*
X127235267Y-116972213D02*
X127263838Y-116972213D01*
X127263838Y-116972213D02*
X127282886Y-116962690D01*
X127282886Y-116962690D02*
X127292410Y-116953166D01*
X127511457Y-116838880D02*
X127587648Y-116838880D01*
X127540029Y-116772213D02*
X127540029Y-116943642D01*
X127540029Y-116943642D02*
X127549552Y-116962690D01*
X127549552Y-116962690D02*
X127568600Y-116972213D01*
X127568600Y-116972213D02*
X127587648Y-116972213D01*
X127654315Y-116972213D02*
X127654315Y-116838880D01*
X127654315Y-116876975D02*
X127663838Y-116857928D01*
X127663838Y-116857928D02*
X127673362Y-116848404D01*
X127673362Y-116848404D02*
X127692410Y-116838880D01*
X127692410Y-116838880D02*
X127711457Y-116838880D01*
X127863839Y-116972213D02*
X127863839Y-116867451D01*
X127863839Y-116867451D02*
X127854315Y-116848404D01*
X127854315Y-116848404D02*
X127835267Y-116838880D01*
X127835267Y-116838880D02*
X127797172Y-116838880D01*
X127797172Y-116838880D02*
X127778125Y-116848404D01*
X127863839Y-116962690D02*
X127844791Y-116972213D01*
X127844791Y-116972213D02*
X127797172Y-116972213D01*
X127797172Y-116972213D02*
X127778125Y-116962690D01*
X127778125Y-116962690D02*
X127768601Y-116943642D01*
X127768601Y-116943642D02*
X127768601Y-116924594D01*
X127768601Y-116924594D02*
X127778125Y-116905547D01*
X127778125Y-116905547D02*
X127797172Y-116896023D01*
X127797172Y-116896023D02*
X127844791Y-116896023D01*
X127844791Y-116896023D02*
X127863839Y-116886499D01*
X128044791Y-116962690D02*
X128025743Y-116972213D01*
X128025743Y-116972213D02*
X127987648Y-116972213D01*
X127987648Y-116972213D02*
X127968600Y-116962690D01*
X127968600Y-116962690D02*
X127959077Y-116953166D01*
X127959077Y-116953166D02*
X127949553Y-116934118D01*
X127949553Y-116934118D02*
X127949553Y-116876975D01*
X127949553Y-116876975D02*
X127959077Y-116857928D01*
X127959077Y-116857928D02*
X127968600Y-116848404D01*
X127968600Y-116848404D02*
X127987648Y-116838880D01*
X127987648Y-116838880D02*
X128025743Y-116838880D01*
X128025743Y-116838880D02*
X128044791Y-116848404D01*
X128130506Y-116972213D02*
X128130506Y-116772213D01*
X128149553Y-116896023D02*
X128206696Y-116972213D01*
X128206696Y-116838880D02*
X128130506Y-116915070D01*
X128282887Y-116962690D02*
X128301934Y-116972213D01*
X128301934Y-116972213D02*
X128340030Y-116972213D01*
X128340030Y-116972213D02*
X128359077Y-116962690D01*
X128359077Y-116962690D02*
X128368601Y-116943642D01*
X128368601Y-116943642D02*
X128368601Y-116934118D01*
X128368601Y-116934118D02*
X128359077Y-116915070D01*
X128359077Y-116915070D02*
X128340030Y-116905547D01*
X128340030Y-116905547D02*
X128311458Y-116905547D01*
X128311458Y-116905547D02*
X128292411Y-116896023D01*
X128292411Y-116896023D02*
X128282887Y-116876975D01*
X128282887Y-116876975D02*
X128282887Y-116867451D01*
X128282887Y-116867451D02*
X128292411Y-116848404D01*
X128292411Y-116848404D02*
X128311458Y-116838880D01*
X128311458Y-116838880D02*
X128340030Y-116838880D01*
X128340030Y-116838880D02*
X128359077Y-116848404D01*
X116672172Y-116972213D02*
X116672172Y-116772213D01*
X116672172Y-116772213D02*
X116786457Y-116972213D01*
X116786457Y-116972213D02*
X116786457Y-116772213D01*
X116910267Y-116972213D02*
X116891219Y-116962690D01*
X116891219Y-116962690D02*
X116881696Y-116953166D01*
X116881696Y-116953166D02*
X116872172Y-116934118D01*
X116872172Y-116934118D02*
X116872172Y-116876975D01*
X116872172Y-116876975D02*
X116881696Y-116857928D01*
X116881696Y-116857928D02*
X116891219Y-116848404D01*
X116891219Y-116848404D02*
X116910267Y-116838880D01*
X116910267Y-116838880D02*
X116938838Y-116838880D01*
X116938838Y-116838880D02*
X116957886Y-116848404D01*
X116957886Y-116848404D02*
X116967410Y-116857928D01*
X116967410Y-116857928D02*
X116976934Y-116876975D01*
X116976934Y-116876975D02*
X116976934Y-116934118D01*
X116976934Y-116934118D02*
X116967410Y-116953166D01*
X116967410Y-116953166D02*
X116957886Y-116962690D01*
X116957886Y-116962690D02*
X116938838Y-116972213D01*
X116938838Y-116972213D02*
X116910267Y-116972213D01*
X117281695Y-116867451D02*
X117215029Y-116867451D01*
X117215029Y-116972213D02*
X117215029Y-116772213D01*
X117215029Y-116772213D02*
X117310267Y-116772213D01*
X117386458Y-116953166D02*
X117395981Y-116962690D01*
X117395981Y-116962690D02*
X117386458Y-116972213D01*
X117386458Y-116972213D02*
X117376934Y-116962690D01*
X117376934Y-116962690D02*
X117386458Y-116953166D01*
X117386458Y-116953166D02*
X117386458Y-116972213D01*
X117595981Y-116953166D02*
X117586457Y-116962690D01*
X117586457Y-116962690D02*
X117557886Y-116972213D01*
X117557886Y-116972213D02*
X117538838Y-116972213D01*
X117538838Y-116972213D02*
X117510267Y-116962690D01*
X117510267Y-116962690D02*
X117491219Y-116943642D01*
X117491219Y-116943642D02*
X117481696Y-116924594D01*
X117481696Y-116924594D02*
X117472172Y-116886499D01*
X117472172Y-116886499D02*
X117472172Y-116857928D01*
X117472172Y-116857928D02*
X117481696Y-116819832D01*
X117481696Y-116819832D02*
X117491219Y-116800785D01*
X117491219Y-116800785D02*
X117510267Y-116781737D01*
X117510267Y-116781737D02*
X117538838Y-116772213D01*
X117538838Y-116772213D02*
X117557886Y-116772213D01*
X117557886Y-116772213D02*
X117586457Y-116781737D01*
X117586457Y-116781737D02*
X117595981Y-116791261D01*
X117767410Y-116838880D02*
X117767410Y-116972213D01*
X117681696Y-116838880D02*
X117681696Y-116943642D01*
X117681696Y-116943642D02*
X117691219Y-116962690D01*
X117691219Y-116962690D02*
X117710267Y-116972213D01*
X117710267Y-116972213D02*
X117738838Y-116972213D01*
X117738838Y-116972213D02*
X117757886Y-116962690D01*
X117757886Y-116962690D02*
X117767410Y-116953166D01*
X117986457Y-116838880D02*
X118062648Y-116838880D01*
X118015029Y-116772213D02*
X118015029Y-116943642D01*
X118015029Y-116943642D02*
X118024552Y-116962690D01*
X118024552Y-116962690D02*
X118043600Y-116972213D01*
X118043600Y-116972213D02*
X118062648Y-116972213D01*
X118129315Y-116972213D02*
X118129315Y-116838880D01*
X118129315Y-116876975D02*
X118138838Y-116857928D01*
X118138838Y-116857928D02*
X118148362Y-116848404D01*
X118148362Y-116848404D02*
X118167410Y-116838880D01*
X118167410Y-116838880D02*
X118186457Y-116838880D01*
X118338839Y-116972213D02*
X118338839Y-116867451D01*
X118338839Y-116867451D02*
X118329315Y-116848404D01*
X118329315Y-116848404D02*
X118310267Y-116838880D01*
X118310267Y-116838880D02*
X118272172Y-116838880D01*
X118272172Y-116838880D02*
X118253125Y-116848404D01*
X118338839Y-116962690D02*
X118319791Y-116972213D01*
X118319791Y-116972213D02*
X118272172Y-116972213D01*
X118272172Y-116972213D02*
X118253125Y-116962690D01*
X118253125Y-116962690D02*
X118243601Y-116943642D01*
X118243601Y-116943642D02*
X118243601Y-116924594D01*
X118243601Y-116924594D02*
X118253125Y-116905547D01*
X118253125Y-116905547D02*
X118272172Y-116896023D01*
X118272172Y-116896023D02*
X118319791Y-116896023D01*
X118319791Y-116896023D02*
X118338839Y-116886499D01*
X118519791Y-116962690D02*
X118500743Y-116972213D01*
X118500743Y-116972213D02*
X118462648Y-116972213D01*
X118462648Y-116972213D02*
X118443600Y-116962690D01*
X118443600Y-116962690D02*
X118434077Y-116953166D01*
X118434077Y-116953166D02*
X118424553Y-116934118D01*
X118424553Y-116934118D02*
X118424553Y-116876975D01*
X118424553Y-116876975D02*
X118434077Y-116857928D01*
X118434077Y-116857928D02*
X118443600Y-116848404D01*
X118443600Y-116848404D02*
X118462648Y-116838880D01*
X118462648Y-116838880D02*
X118500743Y-116838880D01*
X118500743Y-116838880D02*
X118519791Y-116848404D01*
X118605506Y-116972213D02*
X118605506Y-116772213D01*
X118624553Y-116896023D02*
X118681696Y-116972213D01*
X118681696Y-116838880D02*
X118605506Y-116915070D01*
X118757887Y-116962690D02*
X118776934Y-116972213D01*
X118776934Y-116972213D02*
X118815030Y-116972213D01*
X118815030Y-116972213D02*
X118834077Y-116962690D01*
X118834077Y-116962690D02*
X118843601Y-116943642D01*
X118843601Y-116943642D02*
X118843601Y-116934118D01*
X118843601Y-116934118D02*
X118834077Y-116915070D01*
X118834077Y-116915070D02*
X118815030Y-116905547D01*
X118815030Y-116905547D02*
X118786458Y-116905547D01*
X118786458Y-116905547D02*
X118767411Y-116896023D01*
X118767411Y-116896023D02*
X118757887Y-116876975D01*
X118757887Y-116876975D02*
X118757887Y-116867451D01*
X118757887Y-116867451D02*
X118767411Y-116848404D01*
X118767411Y-116848404D02*
X118786458Y-116838880D01*
X118786458Y-116838880D02*
X118815030Y-116838880D01*
X118815030Y-116838880D02*
X118834077Y-116848404D01*
X116538840Y-116572213D02*
X116538840Y-116372213D01*
X116653125Y-116572213D02*
X116567411Y-116457928D01*
X116653125Y-116372213D02*
X116538840Y-116486499D01*
X116738840Y-116467451D02*
X116805506Y-116467451D01*
X116834078Y-116572213D02*
X116738840Y-116572213D01*
X116738840Y-116572213D02*
X116738840Y-116372213D01*
X116738840Y-116372213D02*
X116834078Y-116372213D01*
X116919792Y-116467451D02*
X116986458Y-116467451D01*
X117015030Y-116572213D02*
X116919792Y-116572213D01*
X116919792Y-116572213D02*
X116919792Y-116372213D01*
X116919792Y-116372213D02*
X117015030Y-116372213D01*
X117100744Y-116572213D02*
X117100744Y-116372213D01*
X117100744Y-116372213D02*
X117176934Y-116372213D01*
X117176934Y-116372213D02*
X117195982Y-116381737D01*
X117195982Y-116381737D02*
X117205505Y-116391261D01*
X117205505Y-116391261D02*
X117215029Y-116410309D01*
X117215029Y-116410309D02*
X117215029Y-116438880D01*
X117215029Y-116438880D02*
X117205505Y-116457928D01*
X117205505Y-116457928D02*
X117195982Y-116467451D01*
X117195982Y-116467451D02*
X117176934Y-116476975D01*
X117176934Y-116476975D02*
X117100744Y-116476975D01*
X117300744Y-116496023D02*
X117453125Y-116496023D01*
X117586458Y-116372213D02*
X117624553Y-116372213D01*
X117624553Y-116372213D02*
X117643601Y-116381737D01*
X117643601Y-116381737D02*
X117662648Y-116400785D01*
X117662648Y-116400785D02*
X117672172Y-116438880D01*
X117672172Y-116438880D02*
X117672172Y-116505547D01*
X117672172Y-116505547D02*
X117662648Y-116543642D01*
X117662648Y-116543642D02*
X117643601Y-116562690D01*
X117643601Y-116562690D02*
X117624553Y-116572213D01*
X117624553Y-116572213D02*
X117586458Y-116572213D01*
X117586458Y-116572213D02*
X117567410Y-116562690D01*
X117567410Y-116562690D02*
X117548363Y-116543642D01*
X117548363Y-116543642D02*
X117538839Y-116505547D01*
X117538839Y-116505547D02*
X117538839Y-116438880D01*
X117538839Y-116438880D02*
X117548363Y-116400785D01*
X117548363Y-116400785D02*
X117567410Y-116381737D01*
X117567410Y-116381737D02*
X117586458Y-116372213D01*
X117757887Y-116372213D02*
X117757887Y-116534118D01*
X117757887Y-116534118D02*
X117767410Y-116553166D01*
X117767410Y-116553166D02*
X117776934Y-116562690D01*
X117776934Y-116562690D02*
X117795982Y-116572213D01*
X117795982Y-116572213D02*
X117834077Y-116572213D01*
X117834077Y-116572213D02*
X117853125Y-116562690D01*
X117853125Y-116562690D02*
X117862648Y-116553166D01*
X117862648Y-116553166D02*
X117872172Y-116534118D01*
X117872172Y-116534118D02*
X117872172Y-116372213D01*
X117938839Y-116372213D02*
X118053125Y-116372213D01*
X117995982Y-116572213D02*
X117995982Y-116372213D01*
X118253125Y-116372213D02*
X118386458Y-116372213D01*
X118386458Y-116372213D02*
X118253125Y-116572213D01*
X118253125Y-116572213D02*
X118386458Y-116572213D01*
X118500744Y-116372213D02*
X118538839Y-116372213D01*
X118538839Y-116372213D02*
X118557887Y-116381737D01*
X118557887Y-116381737D02*
X118576934Y-116400785D01*
X118576934Y-116400785D02*
X118586458Y-116438880D01*
X118586458Y-116438880D02*
X118586458Y-116505547D01*
X118586458Y-116505547D02*
X118576934Y-116543642D01*
X118576934Y-116543642D02*
X118557887Y-116562690D01*
X118557887Y-116562690D02*
X118538839Y-116572213D01*
X118538839Y-116572213D02*
X118500744Y-116572213D01*
X118500744Y-116572213D02*
X118481696Y-116562690D01*
X118481696Y-116562690D02*
X118462649Y-116543642D01*
X118462649Y-116543642D02*
X118453125Y-116505547D01*
X118453125Y-116505547D02*
X118453125Y-116438880D01*
X118453125Y-116438880D02*
X118462649Y-116400785D01*
X118462649Y-116400785D02*
X118481696Y-116381737D01*
X118481696Y-116381737D02*
X118500744Y-116372213D01*
X118672173Y-116572213D02*
X118672173Y-116372213D01*
X118672173Y-116372213D02*
X118786458Y-116572213D01*
X118786458Y-116572213D02*
X118786458Y-116372213D01*
X118881697Y-116467451D02*
X118948363Y-116467451D01*
X118976935Y-116572213D02*
X118881697Y-116572213D01*
X118881697Y-116572213D02*
X118881697Y-116372213D01*
X118881697Y-116372213D02*
X118976935Y-116372213D01*
X121538840Y-116572213D02*
X121538840Y-116372213D01*
X121653125Y-116572213D02*
X121567411Y-116457928D01*
X121653125Y-116372213D02*
X121538840Y-116486499D01*
X121738840Y-116467451D02*
X121805506Y-116467451D01*
X121834078Y-116572213D02*
X121738840Y-116572213D01*
X121738840Y-116572213D02*
X121738840Y-116372213D01*
X121738840Y-116372213D02*
X121834078Y-116372213D01*
X121919792Y-116467451D02*
X121986458Y-116467451D01*
X122015030Y-116572213D02*
X121919792Y-116572213D01*
X121919792Y-116572213D02*
X121919792Y-116372213D01*
X121919792Y-116372213D02*
X122015030Y-116372213D01*
X122100744Y-116572213D02*
X122100744Y-116372213D01*
X122100744Y-116372213D02*
X122176934Y-116372213D01*
X122176934Y-116372213D02*
X122195982Y-116381737D01*
X122195982Y-116381737D02*
X122205505Y-116391261D01*
X122205505Y-116391261D02*
X122215029Y-116410309D01*
X122215029Y-116410309D02*
X122215029Y-116438880D01*
X122215029Y-116438880D02*
X122205505Y-116457928D01*
X122205505Y-116457928D02*
X122195982Y-116467451D01*
X122195982Y-116467451D02*
X122176934Y-116476975D01*
X122176934Y-116476975D02*
X122100744Y-116476975D01*
X122300744Y-116496023D02*
X122453125Y-116496023D01*
X122586458Y-116372213D02*
X122624553Y-116372213D01*
X122624553Y-116372213D02*
X122643601Y-116381737D01*
X122643601Y-116381737D02*
X122662648Y-116400785D01*
X122662648Y-116400785D02*
X122672172Y-116438880D01*
X122672172Y-116438880D02*
X122672172Y-116505547D01*
X122672172Y-116505547D02*
X122662648Y-116543642D01*
X122662648Y-116543642D02*
X122643601Y-116562690D01*
X122643601Y-116562690D02*
X122624553Y-116572213D01*
X122624553Y-116572213D02*
X122586458Y-116572213D01*
X122586458Y-116572213D02*
X122567410Y-116562690D01*
X122567410Y-116562690D02*
X122548363Y-116543642D01*
X122548363Y-116543642D02*
X122538839Y-116505547D01*
X122538839Y-116505547D02*
X122538839Y-116438880D01*
X122538839Y-116438880D02*
X122548363Y-116400785D01*
X122548363Y-116400785D02*
X122567410Y-116381737D01*
X122567410Y-116381737D02*
X122586458Y-116372213D01*
X122757887Y-116372213D02*
X122757887Y-116534118D01*
X122757887Y-116534118D02*
X122767410Y-116553166D01*
X122767410Y-116553166D02*
X122776934Y-116562690D01*
X122776934Y-116562690D02*
X122795982Y-116572213D01*
X122795982Y-116572213D02*
X122834077Y-116572213D01*
X122834077Y-116572213D02*
X122853125Y-116562690D01*
X122853125Y-116562690D02*
X122862648Y-116553166D01*
X122862648Y-116553166D02*
X122872172Y-116534118D01*
X122872172Y-116534118D02*
X122872172Y-116372213D01*
X122938839Y-116372213D02*
X123053125Y-116372213D01*
X122995982Y-116572213D02*
X122995982Y-116372213D01*
X123253125Y-116372213D02*
X123386458Y-116372213D01*
X123386458Y-116372213D02*
X123253125Y-116572213D01*
X123253125Y-116572213D02*
X123386458Y-116572213D01*
X123500744Y-116372213D02*
X123538839Y-116372213D01*
X123538839Y-116372213D02*
X123557887Y-116381737D01*
X123557887Y-116381737D02*
X123576934Y-116400785D01*
X123576934Y-116400785D02*
X123586458Y-116438880D01*
X123586458Y-116438880D02*
X123586458Y-116505547D01*
X123586458Y-116505547D02*
X123576934Y-116543642D01*
X123576934Y-116543642D02*
X123557887Y-116562690D01*
X123557887Y-116562690D02*
X123538839Y-116572213D01*
X123538839Y-116572213D02*
X123500744Y-116572213D01*
X123500744Y-116572213D02*
X123481696Y-116562690D01*
X123481696Y-116562690D02*
X123462649Y-116543642D01*
X123462649Y-116543642D02*
X123453125Y-116505547D01*
X123453125Y-116505547D02*
X123453125Y-116438880D01*
X123453125Y-116438880D02*
X123462649Y-116400785D01*
X123462649Y-116400785D02*
X123481696Y-116381737D01*
X123481696Y-116381737D02*
X123500744Y-116372213D01*
X123672173Y-116572213D02*
X123672173Y-116372213D01*
X123672173Y-116372213D02*
X123786458Y-116572213D01*
X123786458Y-116572213D02*
X123786458Y-116372213D01*
X123881697Y-116467451D02*
X123948363Y-116467451D01*
X123976935Y-116572213D02*
X123881697Y-116572213D01*
X123881697Y-116572213D02*
X123881697Y-116372213D01*
X123881697Y-116372213D02*
X123976935Y-116372213D01*
X121672172Y-116972213D02*
X121672172Y-116772213D01*
X121672172Y-116772213D02*
X121786457Y-116972213D01*
X121786457Y-116972213D02*
X121786457Y-116772213D01*
X121910267Y-116972213D02*
X121891219Y-116962690D01*
X121891219Y-116962690D02*
X121881696Y-116953166D01*
X121881696Y-116953166D02*
X121872172Y-116934118D01*
X121872172Y-116934118D02*
X121872172Y-116876975D01*
X121872172Y-116876975D02*
X121881696Y-116857928D01*
X121881696Y-116857928D02*
X121891219Y-116848404D01*
X121891219Y-116848404D02*
X121910267Y-116838880D01*
X121910267Y-116838880D02*
X121938838Y-116838880D01*
X121938838Y-116838880D02*
X121957886Y-116848404D01*
X121957886Y-116848404D02*
X121967410Y-116857928D01*
X121967410Y-116857928D02*
X121976934Y-116876975D01*
X121976934Y-116876975D02*
X121976934Y-116934118D01*
X121976934Y-116934118D02*
X121967410Y-116953166D01*
X121967410Y-116953166D02*
X121957886Y-116962690D01*
X121957886Y-116962690D02*
X121938838Y-116972213D01*
X121938838Y-116972213D02*
X121910267Y-116972213D01*
X122281695Y-116867451D02*
X122215029Y-116867451D01*
X122215029Y-116972213D02*
X122215029Y-116772213D01*
X122215029Y-116772213D02*
X122310267Y-116772213D01*
X122386458Y-116953166D02*
X122395981Y-116962690D01*
X122395981Y-116962690D02*
X122386458Y-116972213D01*
X122386458Y-116972213D02*
X122376934Y-116962690D01*
X122376934Y-116962690D02*
X122386458Y-116953166D01*
X122386458Y-116953166D02*
X122386458Y-116972213D01*
X122595981Y-116953166D02*
X122586457Y-116962690D01*
X122586457Y-116962690D02*
X122557886Y-116972213D01*
X122557886Y-116972213D02*
X122538838Y-116972213D01*
X122538838Y-116972213D02*
X122510267Y-116962690D01*
X122510267Y-116962690D02*
X122491219Y-116943642D01*
X122491219Y-116943642D02*
X122481696Y-116924594D01*
X122481696Y-116924594D02*
X122472172Y-116886499D01*
X122472172Y-116886499D02*
X122472172Y-116857928D01*
X122472172Y-116857928D02*
X122481696Y-116819832D01*
X122481696Y-116819832D02*
X122491219Y-116800785D01*
X122491219Y-116800785D02*
X122510267Y-116781737D01*
X122510267Y-116781737D02*
X122538838Y-116772213D01*
X122538838Y-116772213D02*
X122557886Y-116772213D01*
X122557886Y-116772213D02*
X122586457Y-116781737D01*
X122586457Y-116781737D02*
X122595981Y-116791261D01*
X122767410Y-116838880D02*
X122767410Y-116972213D01*
X122681696Y-116838880D02*
X122681696Y-116943642D01*
X122681696Y-116943642D02*
X122691219Y-116962690D01*
X122691219Y-116962690D02*
X122710267Y-116972213D01*
X122710267Y-116972213D02*
X122738838Y-116972213D01*
X122738838Y-116972213D02*
X122757886Y-116962690D01*
X122757886Y-116962690D02*
X122767410Y-116953166D01*
X122986457Y-116838880D02*
X123062648Y-116838880D01*
X123015029Y-116772213D02*
X123015029Y-116943642D01*
X123015029Y-116943642D02*
X123024552Y-116962690D01*
X123024552Y-116962690D02*
X123043600Y-116972213D01*
X123043600Y-116972213D02*
X123062648Y-116972213D01*
X123129315Y-116972213D02*
X123129315Y-116838880D01*
X123129315Y-116876975D02*
X123138838Y-116857928D01*
X123138838Y-116857928D02*
X123148362Y-116848404D01*
X123148362Y-116848404D02*
X123167410Y-116838880D01*
X123167410Y-116838880D02*
X123186457Y-116838880D01*
X123338839Y-116972213D02*
X123338839Y-116867451D01*
X123338839Y-116867451D02*
X123329315Y-116848404D01*
X123329315Y-116848404D02*
X123310267Y-116838880D01*
X123310267Y-116838880D02*
X123272172Y-116838880D01*
X123272172Y-116838880D02*
X123253125Y-116848404D01*
X123338839Y-116962690D02*
X123319791Y-116972213D01*
X123319791Y-116972213D02*
X123272172Y-116972213D01*
X123272172Y-116972213D02*
X123253125Y-116962690D01*
X123253125Y-116962690D02*
X123243601Y-116943642D01*
X123243601Y-116943642D02*
X123243601Y-116924594D01*
X123243601Y-116924594D02*
X123253125Y-116905547D01*
X123253125Y-116905547D02*
X123272172Y-116896023D01*
X123272172Y-116896023D02*
X123319791Y-116896023D01*
X123319791Y-116896023D02*
X123338839Y-116886499D01*
X123519791Y-116962690D02*
X123500743Y-116972213D01*
X123500743Y-116972213D02*
X123462648Y-116972213D01*
X123462648Y-116972213D02*
X123443600Y-116962690D01*
X123443600Y-116962690D02*
X123434077Y-116953166D01*
X123434077Y-116953166D02*
X123424553Y-116934118D01*
X123424553Y-116934118D02*
X123424553Y-116876975D01*
X123424553Y-116876975D02*
X123434077Y-116857928D01*
X123434077Y-116857928D02*
X123443600Y-116848404D01*
X123443600Y-116848404D02*
X123462648Y-116838880D01*
X123462648Y-116838880D02*
X123500743Y-116838880D01*
X123500743Y-116838880D02*
X123519791Y-116848404D01*
X123605506Y-116972213D02*
X123605506Y-116772213D01*
X123624553Y-116896023D02*
X123681696Y-116972213D01*
X123681696Y-116838880D02*
X123605506Y-116915070D01*
X123757887Y-116962690D02*
X123776934Y-116972213D01*
X123776934Y-116972213D02*
X123815030Y-116972213D01*
X123815030Y-116972213D02*
X123834077Y-116962690D01*
X123834077Y-116962690D02*
X123843601Y-116943642D01*
X123843601Y-116943642D02*
X123843601Y-116934118D01*
X123843601Y-116934118D02*
X123834077Y-116915070D01*
X123834077Y-116915070D02*
X123815030Y-116905547D01*
X123815030Y-116905547D02*
X123786458Y-116905547D01*
X123786458Y-116905547D02*
X123767411Y-116896023D01*
X123767411Y-116896023D02*
X123757887Y-116876975D01*
X123757887Y-116876975D02*
X123757887Y-116867451D01*
X123757887Y-116867451D02*
X123767411Y-116848404D01*
X123767411Y-116848404D02*
X123786458Y-116838880D01*
X123786458Y-116838880D02*
X123815030Y-116838880D01*
X123815030Y-116838880D02*
X123834077Y-116848404D01*
D11*
X137103282Y-117919345D02*
X136703282Y-117919345D01*
X137103282Y-117690774D02*
X136874711Y-117862203D01*
X136703282Y-117690774D02*
X136931854Y-117919345D01*
X136893758Y-117519345D02*
X136893758Y-117386012D01*
X137103282Y-117328869D02*
X137103282Y-117519345D01*
X137103282Y-117519345D02*
X136703282Y-117519345D01*
X136703282Y-117519345D02*
X136703282Y-117328869D01*
X136893758Y-117157440D02*
X136893758Y-117024107D01*
X137103282Y-116966964D02*
X137103282Y-117157440D01*
X137103282Y-117157440D02*
X136703282Y-117157440D01*
X136703282Y-117157440D02*
X136703282Y-116966964D01*
X137103282Y-116795535D02*
X136703282Y-116795535D01*
X136703282Y-116795535D02*
X136703282Y-116643154D01*
X136703282Y-116643154D02*
X136722330Y-116605059D01*
X136722330Y-116605059D02*
X136741377Y-116586012D01*
X136741377Y-116586012D02*
X136779473Y-116566964D01*
X136779473Y-116566964D02*
X136836615Y-116566964D01*
X136836615Y-116566964D02*
X136874711Y-116586012D01*
X136874711Y-116586012D02*
X136893758Y-116605059D01*
X136893758Y-116605059D02*
X136912806Y-116643154D01*
X136912806Y-116643154D02*
X136912806Y-116795535D01*
X136703282Y-116319345D02*
X136703282Y-116243154D01*
X136703282Y-116243154D02*
X136722330Y-116205059D01*
X136722330Y-116205059D02*
X136760425Y-116166964D01*
X136760425Y-116166964D02*
X136836615Y-116147916D01*
X136836615Y-116147916D02*
X136969949Y-116147916D01*
X136969949Y-116147916D02*
X137046139Y-116166964D01*
X137046139Y-116166964D02*
X137084235Y-116205059D01*
X137084235Y-116205059D02*
X137103282Y-116243154D01*
X137103282Y-116243154D02*
X137103282Y-116319345D01*
X137103282Y-116319345D02*
X137084235Y-116357440D01*
X137084235Y-116357440D02*
X137046139Y-116395535D01*
X137046139Y-116395535D02*
X136969949Y-116414583D01*
X136969949Y-116414583D02*
X136836615Y-116414583D01*
X136836615Y-116414583D02*
X136760425Y-116395535D01*
X136760425Y-116395535D02*
X136722330Y-116357440D01*
X136722330Y-116357440D02*
X136703282Y-116319345D01*
X136703282Y-115976487D02*
X137027092Y-115976487D01*
X137027092Y-115976487D02*
X137065187Y-115957440D01*
X137065187Y-115957440D02*
X137084235Y-115938392D01*
X137084235Y-115938392D02*
X137103282Y-115900297D01*
X137103282Y-115900297D02*
X137103282Y-115824106D01*
X137103282Y-115824106D02*
X137084235Y-115786011D01*
X137084235Y-115786011D02*
X137065187Y-115766964D01*
X137065187Y-115766964D02*
X137027092Y-115747916D01*
X137027092Y-115747916D02*
X136703282Y-115747916D01*
X136703282Y-115614582D02*
X136703282Y-115386011D01*
X137103282Y-115500297D02*
X136703282Y-115500297D01*
M02*
