%TF.GenerationSoftware,KiCad,Pcbnew,7.0.7-7.0.7~ubuntu23.04.1*%
%TF.CreationDate,2023-08-22T21:30:14-04:00*%
%TF.ProjectId,KeyboardSpeedrun,4b657962-6f61-4726-9453-706565647275,rev?*%
%TF.SameCoordinates,Original*%
%TF.FileFunction,Paste,Bot*%
%TF.FilePolarity,Positive*%
%FSLAX46Y46*%
G04 Gerber Fmt 4.6, Leading zero omitted, Abs format (unit mm)*
G04 Created by KiCad (PCBNEW 7.0.7-7.0.7~ubuntu23.04.1) date 2023-08-22 21:30:14*
%MOMM*%
%LPD*%
G01*
G04 APERTURE LIST*
G04 Aperture macros list*
%AMRoundRect*
0 Rectangle with rounded corners*
0 $1 Rounding radius*
0 $2 $3 $4 $5 $6 $7 $8 $9 X,Y pos of 4 corners*
0 Add a 4 corners polygon primitive as box body*
4,1,4,$2,$3,$4,$5,$6,$7,$8,$9,$2,$3,0*
0 Add four circle primitives for the rounded corners*
1,1,$1+$1,$2,$3*
1,1,$1+$1,$4,$5*
1,1,$1+$1,$6,$7*
1,1,$1+$1,$8,$9*
0 Add four rect primitives between the rounded corners*
20,1,$1+$1,$2,$3,$4,$5,0*
20,1,$1+$1,$4,$5,$6,$7,0*
20,1,$1+$1,$6,$7,$8,$9,0*
20,1,$1+$1,$8,$9,$2,$3,0*%
G04 Aperture macros list end*
%ADD10RoundRect,0.250000X0.292217X-0.292217X0.292217X0.292217X-0.292217X0.292217X-0.292217X-0.292217X0*%
%ADD11RoundRect,0.062500X0.062500X-0.375000X0.062500X0.375000X-0.062500X0.375000X-0.062500X-0.375000X0*%
%ADD12RoundRect,0.062500X0.375000X-0.062500X0.375000X0.062500X-0.375000X0.062500X-0.375000X-0.062500X0*%
%ADD13RoundRect,0.225000X-0.225000X-0.375000X0.225000X-0.375000X0.225000X0.375000X-0.225000X0.375000X0*%
%ADD14RoundRect,0.275000X0.625000X0.275000X-0.625000X0.275000X-0.625000X-0.275000X0.625000X-0.275000X0*%
%ADD15RoundRect,0.225000X0.225000X0.375000X-0.225000X0.375000X-0.225000X-0.375000X0.225000X-0.375000X0*%
%ADD16RoundRect,0.135000X-0.185000X0.135000X-0.185000X-0.135000X0.185000X-0.135000X0.185000X0.135000X0*%
%ADD17RoundRect,0.218750X-0.256250X0.218750X-0.256250X-0.218750X0.256250X-0.218750X0.256250X0.218750X0*%
%ADD18RoundRect,0.140000X-0.140000X-0.170000X0.140000X-0.170000X0.140000X0.170000X-0.140000X0.170000X0*%
%ADD19RoundRect,0.150000X0.150000X-0.512500X0.150000X0.512500X-0.150000X0.512500X-0.150000X-0.512500X0*%
%ADD20RoundRect,0.140000X-0.170000X0.140000X-0.170000X-0.140000X0.170000X-0.140000X0.170000X0.140000X0*%
%ADD21RoundRect,0.140000X0.170000X-0.140000X0.170000X0.140000X-0.170000X0.140000X-0.170000X-0.140000X0*%
%ADD22RoundRect,0.150000X0.587500X0.150000X-0.587500X0.150000X-0.587500X-0.150000X0.587500X-0.150000X0*%
%ADD23RoundRect,0.243750X-0.456250X0.243750X-0.456250X-0.243750X0.456250X-0.243750X0.456250X0.243750X0*%
%ADD24R,0.600000X1.450000*%
%ADD25R,0.300000X1.450000*%
G04 APERTURE END LIST*
D10*
%TO.C,U1*%
X148106250Y-118593750D03*
X149381250Y-118593750D03*
X150656250Y-118593750D03*
X151931250Y-118593750D03*
X148106250Y-117318750D03*
X149381250Y-117318750D03*
X150656250Y-117318750D03*
X151931250Y-117318750D03*
X148106250Y-116043750D03*
X149381250Y-116043750D03*
X150656250Y-116043750D03*
X151931250Y-116043750D03*
X148106250Y-114768750D03*
X149381250Y-114768750D03*
X150656250Y-114768750D03*
X151931250Y-114768750D03*
D11*
X152768750Y-120118750D03*
X152268750Y-120118750D03*
X151768750Y-120118750D03*
X151268750Y-120118750D03*
X150768750Y-120118750D03*
X150268750Y-120118750D03*
X149768750Y-120118750D03*
X149268750Y-120118750D03*
X148768750Y-120118750D03*
X148268750Y-120118750D03*
X147768750Y-120118750D03*
X147268750Y-120118750D03*
D12*
X146581250Y-119431250D03*
X146581250Y-118931250D03*
X146581250Y-118431250D03*
X146581250Y-117931250D03*
X146581250Y-117431250D03*
X146581250Y-116931250D03*
X146581250Y-116431250D03*
X146581250Y-115931250D03*
X146581250Y-115431250D03*
X146581250Y-114931250D03*
X146581250Y-114431250D03*
X146581250Y-113931250D03*
D11*
X147268750Y-113243750D03*
X147768750Y-113243750D03*
X148268750Y-113243750D03*
X148768750Y-113243750D03*
X149268750Y-113243750D03*
X149768750Y-113243750D03*
X150268750Y-113243750D03*
X150768750Y-113243750D03*
X151268750Y-113243750D03*
X151768750Y-113243750D03*
X152268750Y-113243750D03*
X152768750Y-113243750D03*
D12*
X153456250Y-113931250D03*
X153456250Y-114431250D03*
X153456250Y-114931250D03*
X153456250Y-115431250D03*
X153456250Y-115931250D03*
X153456250Y-116431250D03*
X153456250Y-116931250D03*
X153456250Y-117431250D03*
X153456250Y-117931250D03*
X153456250Y-118431250D03*
X153456250Y-118931250D03*
X153456250Y-119431250D03*
%TD*%
D13*
%TO.C,D11*%
X81693750Y-83343750D03*
X84993750Y-83343750D03*
%TD*%
D14*
%TO.C,SW2*%
X132878125Y-114831250D03*
X126678125Y-114831250D03*
X132878125Y-118531250D03*
X126678125Y-118531250D03*
%TD*%
D13*
%TO.C,D20*%
X253143750Y-83343750D03*
X256443750Y-83343750D03*
%TD*%
%TO.C,D15*%
X157893750Y-83343750D03*
X161193750Y-83343750D03*
%TD*%
%TO.C,D24*%
X138843750Y-102393750D03*
X142143750Y-102393750D03*
%TD*%
D15*
%TO.C,D6*%
X180263750Y-54768750D03*
X176963750Y-54768750D03*
%TD*%
D13*
%TO.C,D1*%
X81693750Y-64293750D03*
X84993750Y-64293750D03*
%TD*%
%TO.C,D31*%
X167418750Y-121443750D03*
X170718750Y-121443750D03*
%TD*%
D16*
%TO.C,R1*%
X166568750Y-59990000D03*
X166568750Y-61010000D03*
%TD*%
D13*
%TO.C,D29*%
X234093750Y-102393750D03*
X237393750Y-102393750D03*
%TD*%
%TO.C,D16*%
X176943750Y-83343750D03*
X180243750Y-83343750D03*
%TD*%
D14*
%TO.C,SW1*%
X123353125Y-114831250D03*
X117153125Y-114831250D03*
X123353125Y-118531250D03*
X117153125Y-118531250D03*
%TD*%
D17*
%TO.C,FB1*%
X171500000Y-68712500D03*
X171500000Y-70287500D03*
%TD*%
D13*
%TO.C,D12*%
X100743750Y-83343750D03*
X104043750Y-83343750D03*
%TD*%
%TO.C,D22*%
X100743750Y-102393750D03*
X104043750Y-102393750D03*
%TD*%
%TO.C,D19*%
X234093750Y-83343750D03*
X237393750Y-83343750D03*
%TD*%
%TO.C,D30*%
X253143750Y-102393750D03*
X256443750Y-102393750D03*
%TD*%
%TO.C,D23*%
X119793750Y-102393750D03*
X123093750Y-102393750D03*
%TD*%
D15*
%TO.C,D5*%
X161193750Y-54748750D03*
X157893750Y-54748750D03*
%TD*%
D13*
%TO.C,D13*%
X119793750Y-83343750D03*
X123093750Y-83343750D03*
%TD*%
%TO.C,D27*%
X195993750Y-102393750D03*
X199293750Y-102393750D03*
%TD*%
%TO.C,D18*%
X215043750Y-83343750D03*
X218343750Y-83343750D03*
%TD*%
D18*
%TO.C,C3*%
X152768750Y-111906250D03*
X153728750Y-111906250D03*
%TD*%
D19*
%TO.C,U2*%
X170018750Y-63050000D03*
X169068750Y-63050000D03*
X168118750Y-63050000D03*
X168118750Y-60775000D03*
X169068750Y-60775000D03*
X170018750Y-60775000D03*
%TD*%
D13*
%TO.C,D4*%
X138843750Y-64293750D03*
X142143750Y-64293750D03*
%TD*%
%TO.C,D25*%
X157893750Y-102393750D03*
X161193750Y-102393750D03*
%TD*%
%TO.C,D10*%
X253143750Y-64293750D03*
X256443750Y-64293750D03*
%TD*%
D20*
%TO.C,C6*%
X148768750Y-122076250D03*
X148768750Y-123036250D03*
%TD*%
D21*
%TO.C,C5*%
X145378750Y-113926250D03*
X145378750Y-112966250D03*
%TD*%
D13*
%TO.C,D14*%
X138843750Y-83343750D03*
X142143750Y-83343750D03*
%TD*%
D22*
%TO.C,U3*%
X175959375Y-69296875D03*
X175959375Y-71196875D03*
X174084375Y-70246875D03*
%TD*%
D20*
%TO.C,C7*%
X152768750Y-122076250D03*
X152768750Y-123036250D03*
%TD*%
D18*
%TO.C,C2*%
X174538750Y-67906250D03*
X175498750Y-67906250D03*
%TD*%
%TO.C,C4*%
X155948750Y-119436250D03*
X156908750Y-119436250D03*
%TD*%
D13*
%TO.C,D26*%
X176943750Y-102393750D03*
X180243750Y-102393750D03*
%TD*%
D23*
%TO.C,F1*%
X171500000Y-65000000D03*
X171500000Y-66875000D03*
%TD*%
D13*
%TO.C,D8*%
X215043750Y-64293750D03*
X218343750Y-64293750D03*
%TD*%
D16*
%TO.C,R3*%
X115115625Y-116096250D03*
X115115625Y-117116250D03*
%TD*%
D13*
%TO.C,D17*%
X195993750Y-83343750D03*
X199293750Y-83343750D03*
%TD*%
D24*
%TO.C,J1*%
X165818750Y-56432500D03*
X166618750Y-56432500D03*
D25*
X167818750Y-56432500D03*
X168818750Y-56432500D03*
X169318750Y-56432500D03*
X170318750Y-56432500D03*
D24*
X171518750Y-56432500D03*
X172318750Y-56432500D03*
X172318750Y-56432500D03*
X171518750Y-56432500D03*
D25*
X170818750Y-56432500D03*
X169818750Y-56432500D03*
X168318750Y-56432500D03*
X167318750Y-56432500D03*
D24*
X166618750Y-56432500D03*
X165818750Y-56432500D03*
%TD*%
D13*
%TO.C,D9*%
X234093750Y-64293750D03*
X237393750Y-64293750D03*
%TD*%
%TO.C,D7*%
X195993750Y-64293750D03*
X199293750Y-64293750D03*
%TD*%
D21*
%TO.C,C1*%
X177788750Y-70726250D03*
X177788750Y-69766250D03*
%TD*%
D13*
%TO.C,D3*%
X119793750Y-64293750D03*
X123093750Y-64293750D03*
%TD*%
%TO.C,D28*%
X215043750Y-102393750D03*
X218343750Y-102393750D03*
%TD*%
%TO.C,D21*%
X81693750Y-102393750D03*
X84993750Y-102393750D03*
%TD*%
%TO.C,D2*%
X100743750Y-64293750D03*
X104043750Y-64293750D03*
%TD*%
D16*
%TO.C,R2*%
X171568750Y-59990000D03*
X171568750Y-61010000D03*
%TD*%
M02*
