M48
; DRILL file {KiCad 7.0.7-7.0.7~ubuntu23.04.1} date Tue 22 Aug 2023 09:30:14 PM EDT
; FORMAT={-:-/ absolute / inch / decimal}
; #@! TF.CreationDate,2023-08-22T21:30:14-04:00
; #@! TF.GenerationSoftware,Kicad,Pcbnew,7.0.7-7.0.7~ubuntu23.04.1
; #@! TF.FileFunction,Plated,1,4,PTH
FMAT,2
INCH
; #@! TA.AperFunction,Plated,PTH,ComponentDrill
T1C0.0079
; #@! TA.AperFunction,Plated,PTH,ViaDrill
T2C0.0118
; #@! TA.AperFunction,Plated,PTH,ComponentDrill
T3C0.0236
; #@! TA.AperFunction,Plated,PTH,ComponentDrill
T4C0.0600
; #@! TA.AperFunction,Plated,PTH,ComponentDrill
T5C0.1200
%
G90
G05
T1
X5.8059Y-4.4934
X5.8059Y-4.5436
X5.8059Y-4.5938
X5.8059Y-4.6439
X5.8059Y-4.6941
X5.8561Y-4.4934
X5.8561Y-4.5436
X5.8561Y-4.5938
X5.8561Y-4.6439
X5.8561Y-4.6941
X5.9062Y-4.4934
X5.9062Y-4.5436
X5.9062Y-4.5938
X5.9062Y-4.6439
X5.9062Y-4.6941
X5.9564Y-4.4934
X5.9564Y-4.5436
X5.9564Y-4.5938
X5.9564Y-4.6439
X5.9564Y-4.6941
X6.0066Y-4.4934
X6.0066Y-4.5436
X6.0066Y-4.5938
X6.0066Y-4.6439
X6.0066Y-4.6941
T2
X3.1728Y-2.5313
X3.1728Y-3.2813
X3.1728Y-4.0313
X3.9228Y-2.5313
X3.9228Y-3.2813
X3.9228Y-4.0313
X4.5322Y-4.6408
X4.6122Y-4.7239
X4.6728Y-2.5313
X4.6728Y-3.2813
X4.6728Y-4.0313
X4.8566Y-4.468
X4.9874Y-4.4715
X5.2314Y-4.7184
X5.3307Y-4.5936
X5.3309Y-4.5439
X5.4228Y-2.5313
X5.4228Y-3.2813
X5.4228Y-4.0313
X5.4506Y-4.5439
X5.4506Y-4.6439
X5.4566Y-4.5939
X5.6925Y-4.4475
X5.6933Y-4.4853
X5.8133Y-2.9211
X5.8165Y-3.7349
X5.857Y-4.777
X5.857Y-4.8731
X5.8964Y-4.7723
X5.9803Y-4.4073
X6.0145Y-4.3758
X6.0145Y-4.7766
X6.0145Y-4.8727
X6.0523Y-4.3758
X6.085Y-4.4821
X6.1102Y-4.7022
X6.1248Y-4.6274
X6.1728Y-3.2813
X6.1728Y-4.0313
X6.2102Y-4.7022
X6.3846Y-2.1554
X6.5287Y-2.2888
X6.5578Y-2.4306
X6.5598Y-2.2888
X6.6562Y-2.3459
X6.6562Y-2.5258
X6.72Y-2.3463
X6.7523Y-2.5125
X6.7527Y-2.2888
X6.7842Y-2.2888
X6.7877Y-2.4018
X6.8716Y-2.6369
X6.9228Y-3.2813
X6.9228Y-4.0313
X6.9389Y-2.6731
X7.0326Y-2.7471
X7.033Y-2.7845
X7.135Y-2.1562
X7.6728Y-2.5313
X7.6728Y-3.2813
X7.6728Y-4.0313
X8.4228Y-2.5313
X8.4228Y-3.2813
X8.4228Y-4.0313
X9.1728Y-2.5313
X9.1728Y-3.2813
X9.1728Y-4.0313
X9.9228Y-2.5313
X9.9228Y-3.2813
X9.9228Y-4.0313
T4
X3.1313Y-2.2437
X3.1313Y-2.9937
X3.1313Y-3.7437
X3.3813Y-2.1437
X3.3813Y-2.8937
X3.3813Y-3.6437
X3.8813Y-2.2437
X3.8813Y-2.9937
X3.8813Y-3.7437
X4.1312Y-2.1437
X4.1312Y-2.8937
X4.1312Y-3.6437
X4.6312Y-2.2437
X4.6312Y-2.9937
X4.6312Y-3.7437
X4.8812Y-2.1437
X4.8812Y-2.8937
X4.8812Y-3.6437
X5.3812Y-2.2437
X5.3812Y-2.9937
X5.3812Y-3.7437
X5.6312Y-2.1437
X5.6312Y-2.8937
X5.6312Y-3.6437
X6.1312Y-2.9937
X6.1312Y-3.7437
X6.1812Y-2.543
X6.3812Y-2.8937
X6.3812Y-3.6437
X6.4312Y-2.443
X6.5062Y-4.4937
X6.7562Y-4.3937
X6.8812Y-2.9937
X6.8812Y-3.7437
X6.932Y-2.5437
X7.1312Y-2.8937
X7.1312Y-3.6437
X7.182Y-2.4438
X7.6312Y-2.2437
X7.6312Y-2.9937
X7.6312Y-3.7437
X7.8812Y-2.1437
X7.8812Y-2.8937
X7.8812Y-3.6437
X8.3812Y-2.2437
X8.3812Y-2.9937
X8.3812Y-3.7437
X8.6312Y-2.1437
X8.6312Y-2.8937
X8.6312Y-3.6437
X9.1312Y-2.2437
X9.1312Y-2.9937
X9.1312Y-3.7437
X9.3812Y-2.1437
X9.3812Y-2.8937
X9.3812Y-3.6437
X9.8812Y-2.2437
X9.8812Y-2.9937
X9.8812Y-3.7437
X10.1312Y-2.1437
X10.1312Y-2.8937
X10.1312Y-3.6437
T5
X4.0312Y-4.8687
X4.4062Y-4.8687
X8.9062Y-4.8687
X9.2812Y-4.8687
T3
G00X6.4862Y-2.0094
M15
G01X6.4862Y-2.033
M16
G05
G00X6.4862Y-2.1641
M15
G01X6.4862Y-2.2074
M16
G05
G00X6.8263Y-2.0094
M15
G01X6.8263Y-2.033
M16
G05
G00X6.8263Y-2.1641
M15
G01X6.8263Y-2.2074
M16
G05
T0
M30
