%TF.GenerationSoftware,KiCad,Pcbnew,7.0.7-7.0.7~ubuntu23.04.1*%
%TF.CreationDate,2023-08-22T21:30:14-04:00*%
%TF.ProjectId,KeyboardSpeedrun,4b657962-6f61-4726-9453-706565647275,rev?*%
%TF.SameCoordinates,Original*%
%TF.FileFunction,Copper,L3,Inr*%
%TF.FilePolarity,Positive*%
%FSLAX46Y46*%
G04 Gerber Fmt 4.6, Leading zero omitted, Abs format (unit mm)*
G04 Created by KiCad (PCBNEW 7.0.7-7.0.7~ubuntu23.04.1) date 2023-08-22 21:30:14*
%MOMM*%
%LPD*%
G01*
G04 APERTURE LIST*
%TA.AperFunction,ComponentPad*%
%ADD10C,2.300000*%
%TD*%
%TA.AperFunction,ComponentPad*%
%ADD11C,4.000000*%
%TD*%
%TA.AperFunction,ComponentPad*%
%ADD12C,0.500000*%
%TD*%
%TA.AperFunction,ComponentPad*%
%ADD13O,1.000000X1.600000*%
%TD*%
%TA.AperFunction,ComponentPad*%
%ADD14O,1.000000X2.100000*%
%TD*%
%TA.AperFunction,ViaPad*%
%ADD15C,0.500000*%
%TD*%
%TA.AperFunction,Conductor*%
%ADD16C,0.150000*%
%TD*%
G04 APERTURE END LIST*
D10*
%TO.N,COLUMN0*%
%TO.C,MX1*%
X79533750Y-56991250D03*
%TO.N,Net-(D1-A)*%
X85883750Y-54451250D03*
%TD*%
%TO.N,COLUMN7*%
%TO.C,MX28*%
X212883750Y-95091250D03*
%TO.N,Net-(D28-A)*%
X219233750Y-92551250D03*
%TD*%
%TO.N,COLUMN2*%
%TO.C,MX13*%
X117633750Y-76041250D03*
%TO.N,Net-(D13-A)*%
X123983750Y-73501250D03*
%TD*%
%TO.N,COLUMN3*%
%TO.C,MX24*%
X136683750Y-95091250D03*
%TO.N,Net-(D24-A)*%
X143033750Y-92551250D03*
%TD*%
%TO.N,COLUMN8*%
%TO.C,MX9*%
X231933750Y-56991250D03*
%TO.N,Net-(D9-A)*%
X238283750Y-54451250D03*
%TD*%
%TO.N,COLUMN1*%
%TO.C,MX22*%
X98583750Y-95091250D03*
%TO.N,Net-(D22-A)*%
X104933750Y-92551250D03*
%TD*%
%TO.N,COLUMN0*%
%TO.C,MX11*%
X79533750Y-76041250D03*
%TO.N,Net-(D11-A)*%
X85883750Y-73501250D03*
%TD*%
%TO.N,COLUMN1*%
%TO.C,MX12*%
X98583750Y-76041250D03*
%TO.N,Net-(D12-A)*%
X104933750Y-73501250D03*
%TD*%
%TO.N,COLUMN7*%
%TO.C,MX8*%
X212883750Y-56991250D03*
%TO.N,Net-(D8-A)*%
X219233750Y-54451250D03*
%TD*%
%TO.N,COLUMN4*%
%TO.C,MX31*%
X165258750Y-114141250D03*
%TO.N,Net-(D31-A)*%
X171608750Y-111601250D03*
%TD*%
%TO.N,COLUMN8*%
%TO.C,MX19*%
X231933750Y-76041250D03*
%TO.N,Net-(D19-A)*%
X238283750Y-73501250D03*
%TD*%
%TO.N,COLUMN4*%
%TO.C,MX5*%
X163353750Y-62051250D03*
%TO.N,Net-(D5-A)*%
X157003750Y-64591250D03*
%TD*%
%TO.N,COLUMN9*%
%TO.C,MX10*%
X250983750Y-56991250D03*
%TO.N,Net-(D10-A)*%
X257333750Y-54451250D03*
%TD*%
%TO.N,COLUMN7*%
%TO.C,MX18*%
X212883750Y-76041250D03*
%TO.N,Net-(D18-A)*%
X219233750Y-73501250D03*
%TD*%
%TO.N,COLUMN9*%
%TO.C,MX30*%
X250983750Y-95091250D03*
%TO.N,Net-(D30-A)*%
X257333750Y-92551250D03*
%TD*%
%TO.N,COLUMN2*%
%TO.C,MX23*%
X117633750Y-95091250D03*
%TO.N,Net-(D23-A)*%
X123983750Y-92551250D03*
%TD*%
%TO.N,COLUMN3*%
%TO.C,MX14*%
X136683750Y-76041250D03*
%TO.N,Net-(D14-A)*%
X143033750Y-73501250D03*
%TD*%
%TO.N,COLUMN5*%
%TO.C,MX16*%
X174783750Y-76041250D03*
%TO.N,Net-(D16-A)*%
X181133750Y-73501250D03*
%TD*%
D11*
%TO.N,*%
%TO.C,STAB31*%
X235743750Y-123666250D03*
X226218750Y-123666250D03*
X111918750Y-123666250D03*
X102393750Y-123666250D03*
%TD*%
D10*
%TO.N,COLUMN4*%
%TO.C,MX25*%
X155733750Y-95091250D03*
%TO.N,Net-(D25-A)*%
X162083750Y-92551250D03*
%TD*%
%TO.N,COLUMN8*%
%TO.C,MX29*%
X231933750Y-95091250D03*
%TO.N,Net-(D29-A)*%
X238283750Y-92551250D03*
%TD*%
%TO.N,COLUMN1*%
%TO.C,MX2*%
X98583750Y-56991250D03*
%TO.N,Net-(D2-A)*%
X104933750Y-54451250D03*
%TD*%
%TO.N,COLUMN6*%
%TO.C,MX7*%
X193833750Y-56991250D03*
%TO.N,Net-(D7-A)*%
X200183750Y-54451250D03*
%TD*%
%TO.N,COLUMN9*%
%TO.C,MX20*%
X250983750Y-76041250D03*
%TO.N,Net-(D20-A)*%
X257333750Y-73501250D03*
%TD*%
%TO.N,COLUMN6*%
%TO.C,MX17*%
X193833750Y-76041250D03*
%TO.N,Net-(D17-A)*%
X200183750Y-73501250D03*
%TD*%
%TO.N,COLUMN4*%
%TO.C,MX15*%
X155733750Y-76041250D03*
%TO.N,Net-(D15-A)*%
X162083750Y-73501250D03*
%TD*%
%TO.N,COLUMN0*%
%TO.C,MX21*%
X79533750Y-95091250D03*
%TO.N,Net-(D21-A)*%
X85883750Y-92551250D03*
%TD*%
%TO.N,COLUMN5*%
%TO.C,MX6*%
X182423750Y-62071250D03*
%TO.N,Net-(D6-A)*%
X176073750Y-64611250D03*
%TD*%
%TO.N,COLUMN6*%
%TO.C,MX27*%
X193833750Y-95091250D03*
%TO.N,Net-(D27-A)*%
X200183750Y-92551250D03*
%TD*%
%TO.N,COLUMN3*%
%TO.C,MX4*%
X136683750Y-56991250D03*
%TO.N,Net-(D4-A)*%
X143033750Y-54451250D03*
%TD*%
%TO.N,COLUMN5*%
%TO.C,MX26*%
X174783750Y-95091250D03*
%TO.N,Net-(D26-A)*%
X181133750Y-92551250D03*
%TD*%
%TO.N,COLUMN2*%
%TO.C,MX3*%
X117633750Y-56991250D03*
%TO.N,Net-(D3-A)*%
X123983750Y-54451250D03*
%TD*%
D12*
%TO.N,GND*%
%TO.C,U1*%
X147468750Y-119231250D03*
X148743750Y-119231250D03*
X150018750Y-119231250D03*
X151293750Y-119231250D03*
X152568750Y-119231250D03*
X147468750Y-117956250D03*
X148743750Y-117956250D03*
X150018750Y-117956250D03*
X151293750Y-117956250D03*
X152568750Y-117956250D03*
X147468750Y-116681250D03*
X148743750Y-116681250D03*
X150018750Y-116681250D03*
X151293750Y-116681250D03*
X152568750Y-116681250D03*
X147468750Y-115406250D03*
X148743750Y-115406250D03*
X150018750Y-115406250D03*
X151293750Y-115406250D03*
X152568750Y-115406250D03*
X147468750Y-114131250D03*
X148743750Y-114131250D03*
X150018750Y-114131250D03*
X151293750Y-114131250D03*
X152568750Y-114131250D03*
%TD*%
D13*
%TO.N,GND*%
%TO.C,J1*%
X164748750Y-51337500D03*
D14*
X164748750Y-55517500D03*
D13*
X173388750Y-51337500D03*
D14*
X173388750Y-55517500D03*
%TD*%
D15*
%TO.N,+3.3V*%
X155198750Y-119436250D03*
X152768750Y-111146250D03*
X117148750Y-119986250D03*
X148768750Y-121336250D03*
X178638750Y-70726250D03*
X152768750Y-121326250D03*
X138445625Y-115416250D03*
X144608750Y-113926250D03*
%TO.N,GND*%
X148768750Y-123776250D03*
X144588750Y-112966250D03*
X138445625Y-117956250D03*
X153728750Y-111146250D03*
X157738750Y-119436250D03*
X152768750Y-123766250D03*
X126678750Y-113576250D03*
X178628750Y-69776250D03*
X169068750Y-64156250D03*
X115118750Y-117876250D03*
X147658750Y-74196250D03*
X176248750Y-67896250D03*
X166568750Y-61736250D03*
X172408750Y-61006250D03*
X170688750Y-59596250D03*
X147738750Y-94866250D03*
X172318750Y-58136250D03*
X165828750Y-58136250D03*
%TO.N,/SWD*%
X151898750Y-111946250D03*
X135405625Y-115416250D03*
%TO.N,/~{RST}*%
X138598750Y-116686250D03*
X132878750Y-119846250D03*
X149768750Y-121216250D03*
%TO.N,/SWCLK*%
X154558750Y-113846250D03*
X135398750Y-116676250D03*
%TO.N,ROW0*%
X252038750Y-64296250D03*
X137738750Y-64296250D03*
X99638750Y-64296250D03*
X194888750Y-64296250D03*
X213938750Y-64296250D03*
X118688750Y-64296250D03*
X181228750Y-54766250D03*
X80588750Y-64296250D03*
X162168750Y-54746250D03*
X232988750Y-64296250D03*
%TO.N,ROW1*%
X156788750Y-83346250D03*
X137738750Y-83346250D03*
X232988750Y-83346250D03*
X194888750Y-83346250D03*
X252038750Y-83346250D03*
X99638750Y-83346250D03*
X80588750Y-83346250D03*
X213938750Y-83346250D03*
X118688750Y-83346250D03*
X175838750Y-83346250D03*
%TO.N,ROW2*%
X118688750Y-102396250D03*
X232988750Y-102396250D03*
X194888750Y-102396250D03*
X80588750Y-102396250D03*
X137738750Y-102396250D03*
X99638750Y-102396250D03*
X213938750Y-102396250D03*
X156788750Y-102396250D03*
X175838750Y-102396250D03*
X252038750Y-102396250D03*
%TO.N,/BOOT0*%
X123358750Y-113486250D03*
X155568750Y-117536250D03*
%TO.N,VBUS*%
X174538750Y-66976250D03*
X169068750Y-59586250D03*
%TO.N,Net-(F1-Pad1)*%
X166618750Y-58136250D03*
X171508750Y-63816250D03*
X171518750Y-58136250D03*
%TD*%
D16*
%TO.N,ROW0*%
X146108750Y-64296250D02*
X155658750Y-54746250D01*
X80588750Y-64296250D02*
X146108750Y-64296250D01*
X155658750Y-54746250D02*
X162168750Y-54746250D01*
X193568750Y-64296250D02*
X194888750Y-64296250D01*
X184038750Y-54766250D02*
X193568750Y-64296250D01*
X174898750Y-53536250D02*
X176118750Y-54756250D01*
X194888750Y-64296250D02*
X252038750Y-64296250D01*
X162168750Y-54746250D02*
X163378750Y-53536250D01*
X181218750Y-54756250D02*
X181228750Y-54766250D01*
X163378750Y-53536250D02*
X174898750Y-53536250D01*
X181228750Y-54766250D02*
X184038750Y-54766250D01*
X176118750Y-54756250D02*
X181218750Y-54756250D01*
%TO.N,ROW1*%
X252038750Y-83346250D02*
X80588750Y-83346250D01*
%TO.N,ROW2*%
X80588750Y-102396250D02*
X252038750Y-102396250D01*
%TD*%
M02*
